<svg id="the_logo_layer_copy" data-name="the logo layer copy" xmlns="http://www.w3.org/2000/svg" viewBox="0 0 1920 1080"><defs><style>.cls-1,.cls-6{fill:#fff;}.cls-2,.cls-3,.cls-4{fill:none;stroke-width:60px;}.cls-2{stroke:#009a44;}.cls-2,.cls-3,.cls-4,.cls-5,.cls-6,.cls-7{stroke-miterlimit:10;}.cls-3,.cls-5,.cls-6,.cls-7{stroke:#000;}.cls-4{stroke:#be3a34;}.cls-5{fill:#be3a34;stroke-width:10px;}.cls-6{stroke-width:5px;}.cls-7{stroke-width:9px;}</style></defs><g id="react_black" data-name="react black"><path class="cls-1" d="M1512.64,457c-17.86-25.15-41.88-46.44-75.6-67-36-22-77.12-39.77-129.16-55.9C1318.55,286.82,1329.34,225,1321.7,160c-3.58-30.46-11.45-55.94-24-77.88s-28.85-38.88-48.22-50.23-42-17.24-67.32-17.45h-1.42c-28.34,0-56.72,7.07-89.31,22.24-36.92,17.19-72.28,40.81-111.28,74.35-8.05,6.91-16,14.1-23.64,21.06l-.83.75c-4.35-3.73-8.7-7.48-13-11.15-14.87-12.84-30.24-26.12-46.23-38.4C861.53,56.49,827,37.79,790.77,26.14c-20.72-6.67-39.65-9.91-57.87-9.91a145.4,145.4,0,0,0-26.4,2.39C661.92,26.86,629.13,53.53,609,97.88c-17.47,38.54-19.68,79.09-19.83,106.23C589,238.66,593,275.57,601.47,317c1.18,5.79,2.45,11.59,3.71,17.27-49.38,15.19-89,32.09-124.21,53-36.45,21.6-62.11,44-80.75,70.47-18,25.53-26.76,52.93-26.14,81.45.6,27.56,10,54,28,78.48,19.14,26.1,44.89,48.07,81.05,69.15,35.36,20.63,74.79,37.26,123.5,52.07C596.15,784.91,585.91,844,591.91,905.72c2.75,28.29,8.86,52.15,18.69,72.94,12,25.3,28.09,44.89,47.93,58.23,20.43,13.73,44.93,20.94,72.82,21.44.94,0,1.89,0,2.84,0,25.22,0,51.51-6,80.36-18.43,37.63-16.17,73.75-39.35,113.66-72.93,8.82-7.43,17.52-15.19,25.94-22.69l1.41-1.26c35.24,32.79,67.11,57.3,99.75,76.77,39.92,23.81,75,36.63,110.4,40.35a152.13,152.13,0,0,0,15.88.84h0c50.71,0,93.62-26.06,117.73-71.49,15-28.32,22.8-60.88,24.48-102.47,1.54-38.23-2.15-77.91-11.61-124.88-1.58-7.83-3.26-15.43-5-23.41,48.39-15,87-31.24,121-50.85,36.19-20.9,62-42.47,81.29-67.89,18.8-24.8,28.82-51.53,29.77-79.46C1540.2,511.34,1531.26,483.23,1512.64,457Z"/><path class="cls-1" d="M1242.54,373.08c140.48,35.5,233.1,96.32,233.1,165.37,0,69.23-93.12,130.18-234.22,165.64-14.77-51.55-35.77-107-62.63-163.9C1206.27,482.1,1227.65,425.56,1242.54,373.08Z"/><path class="cls-1" d="M1216,88c59.89,34.57,66.18,145.43,26.5,285.09-53-13.4-112.78-23.19-177-28.45-36-51.62-73.61-97.37-110.93-135.73C1056.18,103.83,1155.91,53.27,1216,88Z"/><path class="cls-1" d="M1241.42,704.09c40.31,140.63,34.26,252.41-25.92,287.15-60,34.66-159.52-15.64-260.88-120.35,38.1-39.09,76.52-85.9,113.24-138.81C1130.74,726.8,1189.34,717.19,1241.42,704.09Z"/><path class="cls-1" d="M1242.54,373.08c-14.89,52.48-36.27,109-63.75,167.11-15.35-32.54-32.61-65.57-51.71-98.66-19.7-34.12-40.34-66.53-61.53-96.9C1129.76,349.89,1189.56,359.68,1242.54,373.08Z"/><path class="cls-1" d="M1178.79,540.19c26.86,56.93,47.86,112.35,62.63,163.9-52.08,13.1-110.68,22.71-173.56,28,20.57-29.63,40.61-61.19,59.77-94.37C1146.5,605,1163.58,572.37,1178.79,540.19Z"/><path class="cls-1" d="M1178.79,540.19c-15.21,32.18-32.29,64.82-51.16,97.52-19.16,33.18-39.2,64.74-59.77,94.37-36.23,3-73.87,4.65-112.5,4.65-39,0-76.94-1.63-113.46-4.73-20-29-39.58-59.82-58.26-92.18-19.29-33.41-36.7-66.77-52.16-99.63,15.6-33.22,33.19-67,52.7-100.77,19.24-33.31,39.36-65,60-94.72,35.82-3,73-4.54,111.17-4.54,37.81,0,74.67,1.54,110.19,4.47,21.19,30.37,41.83,62.78,61.53,96.9C1146.18,474.62,1163.44,507.65,1178.79,540.19Z"/><path class="cls-1" d="M1065.55,344.63c-35.52-2.93-72.38-4.47-110.19-4.47-38.15,0-75.35,1.57-111.17,4.54,35.82-51.57,73.25-97.34,110.43-135.8C991.94,247.26,1029.54,293,1065.55,344.63Z"/><path class="cls-1" d="M955.36,736.73c38.63,0,76.27-1.6,112.5-4.65C1031.14,785,992.72,831.8,954.62,870.89c-38-39.2-76.21-86-112.72-138.89C878.42,735.1,916.39,736.73,955.36,736.73Z"/><path class="cls-1" d="M954.62,870.89C854,974.16,755.39,1023.57,695.77,989.14c-59.88-34.57-66.18-145.41-26.51-285.06,51.81,13,110.11,22.63,172.64,27.92C878.41,784.86,916.64,831.69,954.62,870.89Z"/><path class="cls-1" d="M695.22,90.1C755,55.61,853.76,105.26,954.62,208.9,917.44,247.36,880,293.13,844.19,344.7c-63.85,5.29-123.33,15.06-176.07,28.4C629.12,234.43,635.64,124.5,695.22,90.1Z"/><path class="cls-1" d="M844.19,344.7c-20.65,29.74-40.77,61.41-60,94.72-19.51,33.79-37.1,67.55-52.7,100.77-27.36-58.12-48.61-114.66-63.36-167.09C720.86,359.76,780.34,350,844.19,344.7Z"/><path class="cls-1" d="M783.64,639.82C802.32,672.18,821.85,703,841.9,732c-62.53-5.29-120.83-14.89-172.64-27.92,14.61-51.5,35.48-106.93,62.22-163.89C746.94,573.05,764.35,606.41,783.64,639.82Z"/><path class="cls-1" d="M731.48,540.19c-26.74,57-47.61,112.39-62.22,163.89-141.09-35.46-234.18-96.4-234.18-165.63,0-69,92.6-129.85,233-165.35C682.87,425.53,704.12,482.07,731.48,540.19Z"/><path class="cls-2" d="M668.12,373.1c-140.44,35.5-233,96.31-233,165.35,0,69.23,93.09,130.17,234.18,165.63,51.81,13,110.11,22.63,172.64,27.92,36.52,3.1,74.49,4.73,113.46,4.73,38.63,0,76.27-1.6,112.5-4.65,62.88-5.28,121.48-14.89,173.56-28,141.1-35.46,234.22-96.41,234.22-165.64,0-69.05-92.62-129.87-233.1-165.37-53-13.4-112.78-23.19-177-28.45-35.52-2.93-72.38-4.47-110.19-4.47-38.15,0-75.35,1.57-111.17,4.54C780.34,350,720.86,359.76,668.12,373.1Z"/><path class="cls-3" d="M954.62,208.9C853.76,105.26,755,55.61,695.22,90.1s-66.1,144.33-27.1,283c14.75,52.43,36,109,63.36,167.09,15.46,32.86,32.87,66.22,52.16,99.63C802.32,672.18,821.85,703,841.9,732c36.51,52.86,74.74,99.69,112.72,138.89,101.36,104.71,200.85,155,260.88,120.35,60.18-34.74,66.23-146.52,25.92-287.15-14.77-51.55-35.77-107-62.63-163.9-15.35-32.54-32.61-65.57-51.71-98.66-19.7-34.12-40.34-66.53-61.53-96.9C1029.54,293,991.94,247.26,954.62,208.9Z"/><path class="cls-4" d="M1242.54,373.08C1282.22,233.42,1275.93,122.56,1216,88c-60.13-34.72-159.86,15.84-261.42,120.91C917.44,247.36,880,293.13,844.19,344.7c-20.65,29.74-40.77,61.41-60,94.72-19.51,33.79-37.1,67.55-52.7,100.77-26.74,57-47.61,112.39-62.22,163.89-39.67,139.65-33.37,250.49,26.51,285.06,59.62,34.43,158.18-15,258.85-118.25,38.1-39.09,76.52-85.9,113.24-138.81,20.57-29.63,40.61-61.19,59.77-94.37,18.87-32.7,35.95-65.34,51.16-97.52C1206.27,482.1,1227.65,425.56,1242.54,373.08Z"/></g><g id="shield"><path class="cls-5" d="M951.12,374c-24.64,23.13-168.75,171.34,0,331.88a5,5,0,0,0,6.94,0c168.72-160.54,24.62-308.75,0-331.88A5,5,0,0,0,951.12,374Z"/><circle class="cls-6" cx="955.25" cy="545.43" r="13.5"/><path class="cls-6" d="M947.34,592.31c-6.16,8.47-25.32,39.9.57,73.48.45.59,1.16.12,1.16-.78V593.44C949.07,592.09,948,591.39,947.34,592.31Z"/><path class="cls-6" d="M964.53,592.43c6.16,8.48,25.32,39.91-.57,73.49-.45.59-1.16.11-1.16-.79V593.57C962.8,592.22,963.87,591.52,964.53,592.43Z"/><path class="cls-6" d="M946.42,424.76c-6.16,8.48-25.31,39.91.58,73.49.45.59,1.15.11,1.15-.79V425.9C948.15,424.55,947.09,423.85,946.42,424.76Z"/><path class="cls-6" d="M963.62,424.89c6.16,8.48,25.31,39.91-.58,73.48-.45.59-1.15.12-1.15-.78V426C961.89,424.67,963,424,963.62,424.89Z"/><path class="cls-7" d="M1014.34,458.81s-41.23,75.66,0,167.54C1014.34,626.35,1064.43,543.85,1014.34,458.81Z"/><path class="cls-7" d="M892.09,461.55s41.23,75.66,0,167.55C892.09,629.1,842,546.6,892.09,461.55Z"/></g></svg>