<svg width="24" height="11" viewBox="0 0 24 11" fill="none" xmlns="http://www.w3.org/2000/svg">
<path d="M18.5 0C15.46 0 13 2.46 13 5.5C13 6.83 13.47 8.05 14.26 9H9.74C10.53 8.05 11 6.83 11 5.5C11 2.46 8.54 0 5.5 0C2.46 0 0 2.46 0 5.5C0 8.54 2.46 11 5.5 11H18.5C21.54 11 24 8.54 24 5.5C24 2.46 21.54 0 18.5 0ZM5.5 9C3.57 9 2 7.43 2 5.5C2 3.57 3.57 2 5.5 2C7.43 2 9 3.57 9 5.5C9 7.43 7.43 9 5.5 9ZM18.5 9C16.57 9 15 7.43 15 5.5C15 3.57 16.57 2 18.5 2C20.43 2 22 3.57 22 5.5C22 7.43 20.43 9 18.5 9Z" fill="black"/>
</svg>
