<svg width="9" height="10" viewBox="0 0 9 10" fill="none" xmlns="http://www.w3.org/2000/svg">
<g clip-path="url(#clip0_1825_47)">
<path d="M6.84431 0.0408924C6.24322 0.0272312 5.77191 0.109198 5.43038 0.286794C4.99322 0.505373 4.61071 0.997177 4.28284 1.7622C4.26918 1.72122 4.24186 1.67341 4.20087 1.61876C4.0506 1.34554 3.93448 1.14745 3.85251 1.0245C3.77054 0.901548 3.65784 0.764936 3.5144 0.614663C3.37095 0.46439 3.21043 0.348269 3.03284 0.266302C2.623 0.0613842 2.12437 -9.11988e-05 1.53694 0.081876C0.744588 0.273133 0.286938 0.80592 0.163987 1.68024C0.0137137 2.24035 0.170818 2.86876 0.635298 3.56548C0.963167 4.07095 1.15442 4.36466 1.20907 4.44663C1.3047 4.58324 1.54718 4.90428 1.93653 5.40975C2.32587 5.91521 2.58885 6.2704 2.72546 6.47532C3.39486 7.52723 3.81153 8.25811 3.97546 8.66794C3.98912 8.69526 4.04035 8.82846 4.12915 9.06753C4.21795 9.3066 4.26918 9.4398 4.28284 9.46712C4.55606 8.26494 5.36207 6.87149 6.70087 5.28679C8.25825 3.49718 8.75688 2.0969 8.19677 1.08597C7.96453 0.566849 7.51371 0.218488 6.84431 0.0408924Z" fill="black"/>
</g>
<defs>
<clipPath id="clip0_1825_47">
<rect width="8.525" height="10" fill="white"/>
</clipPath>
</defs>
</svg>
