<svg width="22" height="16" viewBox="0 0 22 16" fill="none" xmlns="http://www.w3.org/2000/svg">
<path d="M20.3334 0H1.66671C1.31309 0 0.973947 0.140476 0.723898 0.390524C0.47385 0.640573 0.333374 0.979711 0.333374 1.33333V14.6667C0.333374 15.0203 0.47385 15.3594 0.723898 15.6095C0.973947 15.8595 1.31309 16 1.66671 16H20.3334C20.687 16 21.0261 15.8595 21.2762 15.6095C21.5262 15.3594 21.6667 15.0203 21.6667 14.6667V1.33333C21.6667 0.979711 21.5262 0.640573 21.2762 0.390524C21.0261 0.140476 20.687 0 20.3334 0ZM19.3067 14.6667H2.77337L7.44004 9.84L6.48004 8.91333L1.66671 13.8933V2.34667L9.95337 10.5933C10.2032 10.8417 10.5411 10.9811 10.8934 10.9811C11.2456 10.9811 11.5836 10.8417 11.8334 10.5933L20.3334 2.14V13.8067L15.4267 8.9L14.4867 9.84L19.3067 14.6667ZM2.54004 1.33333H19.2534L10.8934 9.64667L2.54004 1.33333Z" fill="#7E7979"/>
</svg>
