<svg width="22" height="20" viewBox="0 0 22 20" fill="none" xmlns="http://www.w3.org/2000/svg">
<path d="M21.4107 2.93149H0.589286C0.263853 2.93149 0 2.65022 0 2.30331V0.628176C0 0.281266 0.263853 0 0.589286 0H21.4107C21.7361 0 22 0.281266 22 0.628176V2.30331C22 2.65022 21.7361 2.93149 21.4107 2.93149ZM21.4107 11.3072H0.589286C0.263853 11.3072 0 11.0259 0 10.679V9.00386C0 8.65695 0.263853 8.37568 0.589286 8.37568H21.4107C21.7361 8.37568 22 8.65695 22 9.00386V10.679C22 11.0259 21.7361 11.3072 21.4107 11.3072ZM21.4107 19.6828H0.589286C0.263853 19.6828 0 19.4016 0 19.0547V17.3795C0 17.0326 0.263853 16.7514 0.589286 16.7514H21.4107C21.7361 16.7514 22 17.0326 22 17.3795V19.0547C22 19.4016 21.7361 19.6828 21.4107 19.6828Z" fill="#252525"/>
</svg>
