<svg xmlns="http://www.w3.org/2000/svg" viewBox="0 0 1920 1080"><defs><style>.cls-1,.cls-2,.cls-3{fill:none;stroke-width:60px;}.cls-1{stroke:#009a44;}.cls-1,.cls-2,.cls-3,.cls-4,.cls-5,.cls-6{stroke-miterlimit:10;}.cls-2,.cls-4,.cls-5,.cls-6{stroke:#000;}.cls-3{stroke:#be3a34;}.cls-4{fill:#be3a34;stroke-width:10px;}.cls-5{fill:#fff;stroke-width:5px;}.cls-6{stroke-width:9px;}</style></defs><g id="Layer_2" data-name="Layer 2"><g id="react_black" data-name="react black"><ellipse class="cls-1" cx="1022" cy="537.94" rx="537" ry="204.66"/><ellipse class="cls-2" cx="1022" cy="540.24" rx="204.66" ry="537" transform="translate(-133.2 583.38) rotate(-30)"/><ellipse class="cls-3" cx="1022.56" cy="538.06" rx="537" ry="204.66" transform="translate(45.3 1154.6) rotate(-60)"/></g></g><g id="Layer_1" data-name="Layer 1"><path class="cls-4" d="M1017.63,368.19c-25.44,23.87-174.18,176.84,0,342.55a5.2,5.2,0,0,0,7.17,0c174.14-165.71,25.4-318.68,0-342.55A5.16,5.16,0,0,0,1017.63,368.19Z"/><circle class="cls-5" cx="1021.88" cy="545.15" r="13.94"/><path class="cls-5" d="M1013.72,593.53c-6.36,8.75-26.13,41.19.59,75.85.47.61,1.2.12,1.2-.81V594.7C1015.51,593.31,1014.4,592.59,1013.72,593.53Z"/><path class="cls-5" d="M1031.47,593.66c6.35,8.75,26.13,41.19-.6,75.85-.46.61-1.19.12-1.19-.81V594.83C1029.68,593.44,1030.78,592.72,1031.47,593.66Z"/><path class="cls-5" d="M1012.77,420.6c-6.35,8.75-26.13,41.19.6,75.85.46.61,1.19.12,1.19-.81V421.77C1014.56,420.38,1013.46,419.66,1012.77,420.6Z"/><path class="cls-5" d="M1030.52,420.73c6.36,8.75,26.13,41.19-.59,75.85-.47.61-1.2.12-1.2-.81V421.9C1028.73,420.51,1029.84,419.79,1030.52,420.73Z"/></g><g id="Layer_3" data-name="Layer 3"><path class="cls-6" d="M1082.87,455.74s-42.55,78.09,0,172.93C1082.87,628.67,1134.58,543.52,1082.87,455.74Z"/><path class="cls-6" d="M956.7,458.58s42.55,78.09,0,172.93C956.7,631.51,905,546.35,956.7,458.58Z"/></g></svg>